:SAMPLES-PER-SECOND 30
:FULLY-SPECIFIED
:DEGREES
1
root  -113.919 38.2826 0.400166 81.7202 86.2685 80.2551
RightUpLeg  -4.775 -0.374336 -4.1995
RightLeg  53.9116 6.17389 -6.37106
RightFoot  34.745 -4.40798 9.88311
RightToes  3.49245e-010 -3.18055e-015 8.94531e-016
Spine  -3.10875 1.80797 2.8622
Spine1  12.9274 4.59953 -10.7529
HEad  -22.9641 -3.66197 5.7462
LeftShoulder1  0 -2.69403e-036 -1.28585e-037
LeftArm  -19.0225 45.4419 -72.5532
LeftForeArm  -0.554398 -1.43749 -4.76184
LeftHand  1.14581 10.0009 -9.89469
RightShoulder  -2.48481e-017 0 -8.08114e-019
RightArm  16.4178 -9.22259 86.1332
RightForeArm  -38.8256 25.1375 -23.703
RightHand  1.58029 -12.1924 -7.44075
LeftUpLeg  -24.0526 -7.03545 -6.59937
LeftLeg  25.2557 0.633504 5.20701
LeftFoot  -2.66725 -0.259514 2.67702
LeftToes  2.65573e-010 7.17151e-011 4.62952e-011
2
root  -111.937 38.7891 0.339757 89.8571 87.1168 88.6967
RightUpLeg  -10.294 -0.776269 -2.69187
RightLeg  56.4914 6.71029 -6.23356
RightFoot  25.7951 -3.6067 10.1586
RightToes  3.49245e-010 -3.18055e-015 8.94531e-016
Spine  -2.13711 0.971037 2.37839
Spine1  11.2721 3.15805 -9.87046
HEad  -19.3879 -3.75792 5.12346
LeftShoulder1  0 -2.69403e-036 -1.28585e-037
LeftArm  -18.1829 36.4934 -77.4068
LeftForeArm  -3.93449 -3.35753 -5.34328
LeftHand  1.1501 9.27746 -7.40307
RightShoulder  -2.48481e-017 0 -8.08114e-019
RightArm  22.933 -17.922 89.152
RightForeArm  -45.6304 21.853 -21.2472
RightHand  1.54459 -12.4727 -5.92295
LeftUpLeg  -19.3672 -7.29717 -5.96768
LeftLeg  23.4791 0.739462 4.74118
LeftFoot  -4.43246 -0.205793 2.45513
LeftToes  2.65573e-010 7.17151e-011 4.62952e-011
3
root  -109.904 39.1736 0.322546 111.664 87.8446 110.929
RightUpLeg  -15.0468 -1.27115 -0.950427
RightLeg  55.7132 7.30144 -5.04367
RightFoot  19.2938 -2.38884 8.18166
RightToes  3.49245e-010 -3.18055e-015 8.94531e-016
Spine  -1.26533 -0.184643 0.583257
Spine1  9.39105 1.03062 -7.41572
HEad  -16.5834 -1.77969 4.71396
LeftShoulder1  0 -2.69403e-036 -1.28585e-037
LeftArm  -10.7501 29.8428 -80.906
LeftForeArm  -13.1067 -11.4718 -2.94577
LeftHand  1.04163 7.66143 -3.36934
RightShoulder  -2.48481e-017 0 -8.08114e-019
RightArm  21.6553 -26.282 91.1507
RightForeArm  -42.6537 20.3167 -13.8661
RightHand  1.46275 -12.3026 -4.86292
LeftUpLeg  -14.5809 -7.01093 -5.42792
LeftLeg  21.6559 -0.0742242 4.37112
LeftFoot  -6.19824 -0.142986 1.9784
LeftToes  2.65573e-010 7.17151e-011 4.62952e-011
4
root  -107.863 39.2631 0.340676 151.286 86.597 150.517
RightUpLeg  -19.9212 -2.55757 0.203973
RightLeg  53.5585 7.48479 -4.28896
RightFoot  12.8628 -1.23875 5.34565
RightToes  3.49245e-010 -3.18055e-015 8.94531e-016
Spine  -1.85714 -2.02609 -3.24394
Spine1  9.03106 -2.00892 -3.5913
HEad  -15.0435 0.322931 3.94835
LeftShoulder1  0 -2.69403e-036 -1.28585e-037
LeftArm  10.5955 24.295 -83.7305
LeftForeArm  -37.3566 -22.2519 8.60732
LeftHand  0.934786 6.75681 -1.80517
RightShoulder  -2.48481e-017 0 -8.08114e-019
RightArm  13.478 -33.9784 91.3705
RightForeArm  -31.7164 18.1852 -4.79881
RightHand  1.35652 -12.0623 -3.43633
LeftUpLeg  -11.0673 -5.81457 -5.62103
LeftLeg  20.9937 -3.33318 4.19388
LeftFoot  -8.16022 -0.0767156 1.14598
LeftToes  2.65573e-010 7.17151e-011 4.62952e-011
5
root  -105.798 39.368 0.362243 168.962 84.7755 168.285
RightUpLeg  -22.8406 -3.56265 0.98581
RightLeg  48.4996 8.45282 -2.20734
RightFoot  4.07761 -0.66267 4.36956
RightToes  3.49245e-010 -3.18055e-015 8.94531e-016
Spine  -1.93217 -3.69335 -6.24393
Spine1  8.69492 -4.66615 0.493459
HEad  -14.4097 1.46429 2.92985
LeftShoulder1  0 -2.69403e-036 -1.28585e-037
LeftArm  18.582 17.1289 -83.9613
LeftForeArm  -46.7112 -27.5463 17.6998
LeftHand  0.946915 6.85389 -1.87025
RightShoulder  -2.48481e-017 0 -8.08114e-019
RightArm  9.34215 -42.1611 90.225
RightForeArm  -25.937 16.2336 -0.870587
RightHand  1.28399 -12.1357 -1.81953
LeftUpLeg  -7.09064 -3.49788 -4.8878
LeftLeg  19.5493 -7.40387 3.50059
LeftFoot  -9.61902 -0.0462223 0.534367
LeftToes  2.65573e-010 7.17151e-011 4.62952e-011
6
root  -103.751 39.4018 0.412689 174.734 83.8967 174.687
RightUpLeg  -25.2505 -3.49355 1.37122
RightLeg  40.2324 8.35769 -1.53189
RightFoot  2.82768 -0.707058 5.03552
RightToes  3.49245e-010 -3.18055e-015 8.94531e-016
Spine  -0.351243 -4.48136 -8.69593
Spine1  6.98135 -6.21511 4.40726
HEad  -14.1492 2.48469 2.23121
LeftShoulder1  0 -2.69403e-036 -1.28585e-037
LeftArm  16.4406 9.10624 -82.4053
LeftForeArm  -42.2355 -32.4082 19.8501
LeftHand  0.920593 6.61711 -2.18391
RightShoulder  -2.48481e-017 0 -8.08114e-019
RightArm  7.87108 -50.992 87.573
RightForeArm  -23.2264 15.431 0.230592
RightHand  1.29425 -12.4004 -1.43434
LeftUpLeg  -2.45522 -1.27184 -3.47302
LeftLeg  18.1224 -10.164 2.73997
LeftFoot  -11.093 -0.0393618 0.319609
LeftToes  2.65573e-010 7.17151e-011 4.62952e-011
7
root  -101.693 39.1974 0.49588 174.049 83.0907 174.395
RightUpLeg  -26.7679 -3.14495 0.832793
RightLeg  30.1061 9.04462 -0.379298
RightFoot  2.2693 -0.516504 3.81417
RightToes  3.49245e-010 -3.18055e-015 8.94531e-016
Spine  -0.0418604 -5.22278 -11.4006
Spine1  6.80454 -7.48705 7.34255
HEad  -14.567 3.713 2.17324
LeftShoulder1  0 -2.69403e-036 -1.28585e-037
LeftArm  15.7237 1.0782 -80.3273
LeftForeArm  -39.2512 -35.8539 21.5295
LeftHand  0.855296 6.07311 -2.09139
RightShoulder  -2.48481e-017 0 -8.08114e-019
RightArm  6.69711 -58.8491 83.648
RightForeArm  -21.3237 14.8271 0.825137
RightHand  1.3652 -12.8263 -1.83813
LeftUpLeg  1.6529 0.298345 -2.36791
LeftLeg  17.5094 -12.2226 2.12419
LeftFoot  -13.084 -0.0389196 0.0476606
LeftToes  2.65573e-010 7.17151e-011 4.62952e-011
8
root  -99.6886 39.0801 0.526816 178.019 81.6688 177.882
RightUpLeg  -27.6199 -2.45074 0.185609
RightLeg  17.294 9.37934 0.229478
RightFoot  2.68206 -0.416351 2.9918
RightToes  3.49245e-010 -3.18055e-015 8.94531e-016
Spine  -1.07808 -6.58915 -12.4697
Spine1  7.83436 -9.17645 9.39645
HEad  -14.686 4.76697 2.26074
LeftShoulder1  0 -2.69403e-036 -1.28585e-037
LeftArm  15.6355 -6.41524 -77.8595
LeftForeArm  -38.1922 -37.4155 22.3288
LeftHand  0.808976 5.88101 -0.398377
RightShoulder  -2.48481e-017 0 -8.08114e-019
RightArm  8.21688 -65.5424 78.1203
RightForeArm  -21.2199 14.7487 0.744024
RightHand  1.41327 -13.35 -1.62899
LeftUpLeg  5.34606 1.12227 -0.792108
LeftLeg  15.0532 -14.2045 1.68055
LeftFoot  -13.6326 -0.0431337 -1.33653
LeftToes  2.65573e-010 7.17151e-011 4.62952e-011
9
root  -97.6994 38.9312 0.536822 -178.401 80.472 -179.474
RightUpLeg  -27.7374 1.20924 -2.30744
RightLeg  2.86349 5.01044 0.739248
RightFoot  3.61629 -0.57679 3.90989
RightToes  3.49245e-010 -3.18055e-015 8.94531e-016
Spine  -1.89633 -7.96236 -12.7096
Spine1  8.32979 -10.7892 10.7175
HEad  -14.2034 5.77967 2.1725
LeftShoulder1  0 -2.69403e-036 -1.28585e-037
LeftArm  15.3908 -12.5008 -75.2741
LeftForeArm  -37.7135 -37.5959 22.4449
LeftHand  0.764845 5.80368 1.90796
RightShoulder  -2.48481e-017 0 -8.08114e-019
RightArm  14.9709 -70.8306 69.6271
RightForeArm  -22.4017 15.1236 0.211206
RightHand  1.40698 -13.6395 -1.0142
LeftUpLeg  8.42256 1.67927 0.791245
LeftLeg  12.6259 -15.7329 1.56649
LeftFoot  -13.1878 -0.0326914 -3.48218
LeftToes  2.65573e-010 7.17151e-011 4.62952e-011
10
root  -95.4924 38.4948 0.617448 -179.696 80.114 178.593
RightUpLeg  -28.9296 1.54883 -3.4678
RightLeg  -5.08385 2.87372 0.964825
RightFoot  1.15504 -0.599813 4.78172
RightToes  3.49245e-010 -3.18055e-015 8.94531e-016
Spine  -2.38808 -8.93738 -13.9829
Spine1  8.22202 -11.8693 11.9966
HEad  -13.9417 7.23159 1.53705
LeftShoulder1  0 -2.69403e-036 -1.28585e-037
LeftArm  13.8283 -16.3053 -72.8916
LeftForeArm  -36.6869 -37.5984 22.5081
LeftHand  0.729776 5.64573 2.57085
RightShoulder  -2.48481e-017 0 -8.08114e-019
RightArm  23.7034 -73.7548 58.2141
RightForeArm  -21.4784 14.7566 0.639769
RightHand  1.38928 -13.5963 -0.810621
LeftUpLeg  11.2794 2.10824 1.90067
LeftLeg  12.6689 -16.7772 1.32778
LeftFoot  -12.9047 -0.0164528 -5.05777
LeftToes  2.65573e-010 7.17151e-011 4.62952e-011
11
root  -93.2007 38.1062 0.734467 -177.997 80.435 179.661
RightUpLeg  -30.7674 1.31904 -3.28116
RightLeg  -5.06516 0.789942 1.45889
RightFoot  -1.7161 -0.443114 4.43829
RightToes  3.49245e-010 -3.18055e-015 8.94531e-016
Spine  -3.23129 -9.45716 -14.5312
Spine1  9.13406 -12.777 13.4413
HEad  -15.4601 10.0578 1.26461
LeftShoulder1  0 -2.69403e-036 -1.28585e-037
LeftArm  11.2067 -17.6173 -71.0431
LeftForeArm  -36.0325 -38.0127 22.7514
LeftHand  0.725642 5.58532 2.23814
RightShoulder  -2.48481e-017 0 -8.08114e-019
RightArm  29.1082 -74.5852 48.0853
RightForeArm  -18.7281 13.6444 1.77727
RightHand  1.38876 -13.5336 -0.908896
LeftUpLeg  14.31 1.99209 3.5473
LeftLeg  12.3519 -17.1229 0.893566
LeftFoot  -10.9405 0.123209 -7.2463
LeftToes  2.65573e-010 7.17151e-011 4.62952e-011
12
root  -90.7737 37.7457 0.851925 -169.831 80.3296 -172.832
RightUpLeg  -33.143 1.79164 -1.89986
RightLeg  1.97486 -1.84516 0.412135
RightFoot  -1.56001 -0.384392 3.79862
RightToes  3.49245e-010 -3.18055e-015 8.94531e-016
Spine  -4.29806 -9.96785 -13.0035
Spine1  10.2714 -13.6252 14.1347
HEad  -14.8961 9.60204 0.733523
LeftShoulder1  0 -2.69403e-036 -1.28585e-037
LeftArm  8.69649 -16.6318 -70.2379
LeftForeArm  -36.4001 -38.702 23.0732
LeftHand  0.724096 5.6518 2.98423
RightShoulder  -2.48481e-017 0 -8.08114e-019
RightArm  31.6843 -74.814 41.4735
RightForeArm  -17.5639 13.0706 2.1584
RightHand  1.40432 -13.6428 -0.96714
LeftUpLeg  16.6728 0.167495 5.86332
LeftLeg  12.7343 -15.8024 0.540632
LeftFoot  -7.36901 0.592926 -11.6317
LeftToes  2.65573e-010 7.17151e-011 4.62952e-011
